<?xml version="1.0" encoding="UTF-8" standalone="no"?>
<!-- Created with Inkscape (http://www.inkscape.org/) -->

<svg
   xmlns:dc="http://purl.org/dc/elements/1.1/"
   xmlns:cc="http://creativecommons.org/ns#"
   xmlns:rdf="http://www.w3.org/1999/02/22-rdf-syntax-ns#"
   xmlns:svg="http://www.w3.org/2000/svg"
   xmlns="http://www.w3.org/2000/svg"
   xmlns:xlink="http://www.w3.org/1999/xlink"
   xmlns:sodipodi="http://sodipodi.sourceforge.net/DTD/sodipodi-0.dtd"
   xmlns:inkscape="http://www.inkscape.org/namespaces/inkscape"
   width="589.51672"
   height="589.51672"
   viewBox="0 0 589.51673 589.51673"
   id="svg2"
   version="1.1"
   inkscape:version="0.92.3 (2405546, 2018-03-11)"
   sodipodi:docname="ad_cyrkle_2_a.svg"
   inkscape:export-filename="/home/troikas/Εικόνες/My_Paint/MP5/new_logo/ad_cyrkle_2_a.png"
   inkscape:export-xdpi="90"
   inkscape:export-ydpi="90">
  <defs
     id="defs4">
    <linearGradient
       inkscape:collect="always"
       id="linearGradient947">
      <stop
         style="stop-color:#000000;stop-opacity:1;"
         offset="0"
         id="stop943" />
      <stop
         style="stop-color:#fb0000;stop-opacity:1"
         offset="1"
         id="stop945" />
    </linearGradient>
    <filter
       inkscape:collect="always"
       style="color-interpolation-filters:sRGB"
       id="filter979"
       x="-0.03595845"
       width="1.0719169"
       y="-0.036041643"
       height="1.0720834">
      <feGaussianBlur
         inkscape:collect="always"
         stdDeviation="4.6146679"
         id="feGaussianBlur981" />
    </filter>
    <linearGradient
       inkscape:collect="always"
       xlink:href="#linearGradient947"
       id="linearGradient985"
       gradientUnits="userSpaceOnUse"
       x1="86"
       y1="352.7168"
       x2="86"
       y2="659.86133"
       gradientTransform="matrix(0.47655732,0,0,0.47655732,37.320767,264.45845)" />
    <linearGradient
       inkscape:collect="always"
       xlink:href="#linearGradient947"
       id="linearGradient987"
       gradientUnits="userSpaceOnUse"
       x1="86"
       y1="352.7168"
       x2="86"
       y2="659.86133"
       gradientTransform="matrix(0.47655732,0,0,0.47655732,37.320767,264.45845)" />
    <linearGradient
       inkscape:collect="always"
       xlink:href="#linearGradient947"
       id="linearGradient1089"
       gradientUnits="userSpaceOnUse"
       x1="86"
       y1="659.86133"
       x2="86"
       y2="352.7168"
       gradientTransform="matrix(0.47655732,0,0,0.47655732,37.320767,264.45845)" />
    <linearGradient
       inkscape:collect="always"
       xlink:href="#linearGradient947"
       id="linearGradient1091"
       gradientUnits="userSpaceOnUse"
       x1="86"
       y1="659.86133"
       x2="86"
       y2="352.7168"
       gradientTransform="matrix(0.47655732,0,0,0.47655732,37.320767,264.45845)" />
    <linearGradient
       inkscape:collect="always"
       xlink:href="#linearGradient947"
       id="linearGradient867"
       x1="165.84761"
       y1="256.96179"
       x2="164.55322"
       y2="65.584122"
       gradientUnits="userSpaceOnUse"
       gradientTransform="translate(-100.36129,313.06934)" />
    <linearGradient
       inkscape:collect="always"
       xlink:href="#linearGradient947"
       id="linearGradient890"
       x1="-277.52539"
       y1="-175.80664"
       x2="-277.52539"
       y2="287.04324"
       gradientUnits="userSpaceOnUse"
       gradientTransform="translate(-100.36106,309.07026)" />
  </defs>
  <sodipodi:namedview
     id="base"
     pagecolor="#ffffff"
     bordercolor="#666666"
     borderopacity="1.0"
     inkscape:pageopacity="0.0"
     inkscape:pageshadow="2"
     inkscape:zoom="0.9981042"
     inkscape:cx="371.06854"
     inkscape:cy="233.29443"
     inkscape:document-units="px"
     inkscape:current-layer="layer1"
     showgrid="false"
     showborder="false"
     units="px"
     inkscape:window-width="1920"
     inkscape:window-height="1056"
     inkscape:window-x="0"
     inkscape:window-y="0"
     inkscape:window-maximized="1"
     showguides="true"
     inkscape:guide-bbox="true"
     fit-margin-top="0"
     fit-margin-left="0"
     fit-margin-right="0"
     fit-margin-bottom="0" />
  <metadata
     id="metadata7">
    <rdf:RDF>
      <cc:Work
         rdf:about="">
        <dc:format>image/svg+xml</dc:format>
        <dc:type
           rdf:resource="http://purl.org/dc/dcmitype/StillImage" />
        <dc:title></dc:title>
      </cc:Work>
    </rdf:RDF>
  </metadata>
  <g
     inkscape:label="Layer 1"
     inkscape:groupmode="layer"
     id="layer1"
     transform="translate(672.64579,-69.916401)">
    <g
       id="g902"
       transform="matrix(1.2724919,0,0,1.2724919,102.97126,-99.370909)">
      <path
         inkscape:connector-curvature="0"
         id="path869"
         d="m -377.88645,133.26362 a 231.41119,231.41119 0 0 0 -231.41211,231.41211 231.41119,231.41119 0 0 0 231.41211,231.41015 231.41119,231.41119 0 0 0 231.41016,-231.41015 231.41119,231.41119 0 0 0 -231.41016,-231.41211 z m 0,17.01562 a 214.39565,214.39565 0 0 1 214.39453,214.39649 214.39565,214.39565 0 0 1 -214.39453,214.39648 214.39565,214.39565 0 0 1 -214.39649,-214.39648 214.39565,214.39565 0 0 1 214.39649,-214.39649 z"
         style="opacity:1;fill:url(#linearGradient890);fill-opacity:1;fill-rule:nonzero;stroke:#fb0000;stroke-width:0.45511821;stroke-linecap:round;stroke-linejoin:round;stroke-miterlimit:4;stroke-dasharray:none;stroke-dashoffset:0;stroke-opacity:1" />
      <g
         transform="translate(-452.43727,-141.01736)"
         id="g879">
        <g
           id="g1103"
           transform="matrix(1.7932077,0,0,1.7932077,-59.133332,-401.11885)"
           inkscape:export-xdpi="90"
           inkscape:export-ydpi="90">
          <path
             transform="matrix(0.47655732,0,0,0.47655732,37.320764,264.45844)"
             inkscape:connector-curvature="0"
             style="opacity:1;fill:#000000;fill-opacity:0.78333285;fill-rule:nonzero;stroke:none;stroke-width:1;stroke-linecap:round;stroke-linejoin:round;stroke-miterlimit:4;stroke-dasharray:none;stroke-dashoffset:0;stroke-opacity:0.65555576;filter:url(#filter979)"
             d="m 86,352.7168 v 2.70703 15.4375 281.875 4.41797 2.70703 A 154,154 0 0 0 88.115234,659.61719 154,154 0 0 0 106,657.06641 154,154 0 0 0 230,506.36133 154,154 0 0 0 106,355.49219 154,154 0 0 0 88.179688,352.93555 154,154 0 0 0 86,352.7168 Z m 20,21.30078 A 136,136 0 0 1 212,506.36133 136,136 0 0 1 106,638.81836 Z"
             id="path951" />
          <path
             transform="matrix(0.47655732,0,0,0.47655732,37.320764,264.45844)"
             inkscape:connector-curvature="0"
             style="opacity:1;fill:#000000;fill-opacity:0.78333285;fill-rule:nonzero;stroke:none;stroke-width:1;stroke-linecap:round;stroke-linejoin:round;stroke-miterlimit:4;stroke-dasharray:none;stroke-dashoffset:0;stroke-opacity:0.65555576;filter:url(#filter979)"
             d="m 66,352.86133 a 154,154 0 0 0 -144,153.5 154,154 0 0 0 104.076172,145.45703 V 632.37891 A 136,136 0 0 1 -59.525391,515.98047 H 46 v 89.50976 c 0.04717,0.1151 0.07617,0.24058 0.07617,0.37305 v 51.38477 A 154,154 0 0 0 66,660.00586 v -7.26953 -10.875 V 370.74805 360.3418 Z M 46,373.9043 V 496.88672 H -59.511719 A 136,136 0 0 1 46,373.9043 Z"
             id="path953" />
          <path
             id="path844"
             d="m 78.304697,432.54822 v 1.29006 7.35685 134.3296 2.10541 1.29006 a 73.389827,73.389827 0 0 0 1.00803,-0.11635 73.389827,73.389827 0 0 0 8.523116,-1.21559 73.389827,73.389827 0 0 0 59.093107,-71.81961 73.389827,73.389827 0 0 0 -59.093107,-71.89779 73.389827,73.389827 0 0 0 -8.4924,-1.21839 73.389827,73.389827 0 0 0 -1.038746,-0.10425 z m 9.531146,10.15105 a 64.811796,64.811796 0 0 1 50.515077,63.06938 64.811796,64.811796 0 0 1 -50.515077,63.12337 z"
             style="opacity:1;fill:url(#linearGradient985);fill-opacity:1;fill-rule:nonzero;stroke:url(#linearGradient1089);stroke-width:0.40000001;stroke-linecap:round;stroke-linejoin:round;stroke-miterlimit:4;stroke-dasharray:none;stroke-dashoffset:0;stroke-opacity:0.65555576"
             inkscape:connector-curvature="0" />
          <path
             id="path812"
             d="M 68.77355,432.6171 A 73.389827,73.389827 0 0 0 0.14929604,505.76865 73.389827,73.389827 0 0 0 49.747558,575.08726 v -9.26401 A 64.811796,64.811796 0 0 1 8.9535062,510.35272 H 59.242404 v 42.65653 c 0.02248,0.0549 0.0363,0.11465 0.0363,0.17778 v 24.48779 a 73.389827,73.389827 0 0 0 9.494847,1.31425 v -3.46434 -5.18256 -129.20102 -4.95918 z m -9.531146,10.02818 v 58.60817 H 8.9600217 A 64.811796,64.811796 0 0 1 59.242404,442.64528 Z"
             style="opacity:1;fill:url(#linearGradient987);fill-opacity:1;fill-rule:nonzero;stroke:url(#linearGradient1091);stroke-width:0.40000001;stroke-linecap:round;stroke-linejoin:round;stroke-miterlimit:4;stroke-dasharray:none;stroke-dashoffset:0;stroke-opacity:0.65555576"
             inkscape:connector-curvature="0" />
          <path
             inkscape:connector-curvature="0"
             id="path997"
             d="m 75.904297,396.24414 c -0.826229,-0.0163 -1.530977,0.25462 -2.113281,0.81445 -0.582308,0.55984 -0.880711,1.24105 -0.896485,2.04297 -0.01578,0.80193 0.254618,1.49387 0.814453,2.07617 0.559836,0.5823 1.25385,0.88218 2.080078,0.89844 0.82623,0.0163 1.530977,-0.25657 2.113282,-0.8164 0.582301,-0.55984 0.880704,-1.24105 0.896484,-2.04297 0.01578,-0.80193 -0.256571,-1.49387 -0.816406,-2.07618 -0.559835,-0.58229 -1.251896,-0.88021 -2.078125,-0.89648 z m 9.859375,2.15039 -4.94336,25.4082 5.117188,0.81055 4.873047,-25.05078 z m -23.980469,0.28711 c -0.418858,0.003 -0.863291,0.0412 -1.332031,0.11133 l -2.001953,0.29883 0.648437,4.32617 1.09961,-0.16406 c 1.05767,-0.15826 1.668223,0.30306 1.830078,1.38476 l 2.048828,13.70117 c 0.161854,1.08171 -0.28608,1.70308 -1.34375,1.86133 l -1.09961,0.16406 0.648438,4.32618 2,-0.29883 c 3.749921,-0.5611 5.34656,-2.70381 4.789062,-6.42969 l -2.158203,-14.42383 c -0.48781,-3.26015 -2.196897,-4.87949 -5.128906,-4.85742 z m -4.792969,0.62891 -1.947265,0.29101 c -3.749922,0.5611 -5.346561,2.70381 -4.789063,6.42969 l 2.158203,14.42383 c 0.557498,3.72588 2.711017,5.30719 6.460938,4.74609 l 1.947265,-0.29101 -0.646484,-4.32618 -1.046875,0.15625 c -1.05767,0.15826 -1.66627,-0.30305 -1.828125,-1.38476 L 55.248047,405.6543 c -0.161854,-1.08171 0.28608,-1.70307 1.34375,-1.86133 l 1.044922,-0.15625 z m 40.529297,1.18554 -7.205078,8.10547 -1.447265,7.44336 3.638671,10.2168 5.69336,0.9043 -5.333985,-14.20508 10.269536,-11.16797 z m -19.171875,3.08789 -4.996094,0.084 -0.398437,20.23047 4.994141,0.0996 z m -40.957031,1.14063 c -1.014053,0.0196 -2.158426,0.29108 -3.429687,0.81445 l -3.488282,1.43555 1.666016,4.04687 2.646484,-1.08984 c 1.550798,-0.63846 2.532831,-0.45279 2.949219,0.55859 l 1.666016,4.04493 c 0.416387,1.01139 -0.150374,1.8381 -1.701172,2.47656 l -2.646485,1.08789 1.527344,3.70898 1.820313,-0.75 7.455078,7.57618 5.007812,-2.06055 -8.193359,-7.35156 c 1.995729,-1.72847 2.446097,-3.92457 1.349609,-6.58789 l -1.804687,-4.38282 c -0.986029,-2.39503 -2.593302,-3.5705 -4.824219,-3.52734 z m 77.499995,1.48437 -16.089839,21.12696 4.548829,2.0625 16.22266,-21.06446 z m -85.783198,1.32813 -4.619141,1.90234 9.855469,23.93555 4.617188,-1.90234 z m 91.542968,1.28516 -5.28516,7.15039 -1.60742,7.73828 -3.38672,-1.53516 -2.5039,3.26758 4.89648,2.2207 -0.92969,5.58399 4.54688,2.0625 5.46484,-25.94532 z m -103.958984,5.04296 -13.1347654,9.61719 2.4238282,3.64844 13.4570312,-9.85352 z m 116.328124,3.55079 c -1.44561,0.0831 -2.73974,0.87434 -3.88086,2.37304 l -2.20898,2.90039 c -2.18653,2.87171 -1.43249,5.80424 2.25976,8.79883 l 2.48047,-3.19726 c -1.0181,-1.05013 -1.2736,-1.90902 -0.76562,-2.57618 l 1.98828,-2.61132 c 0.58896,-0.77337 1.49051,-0.77399 2.70508,-0.002 l 2.67968,-3.45898 -0.46484,-0.35352 c -1.7501,-1.33253 -3.34736,-1.95613 -4.79297,-1.87304 z m 6.40235,3.0996 -2.6504,3.48047 5.67188,4.31836 2.81055,-3.35937 z m -123.603521,1.10547 -4.029297,2.95118 11.900391,16.25195 4.029297,-2.95117 z m 116.964841,7.58594 -2.46289,3.23438 c 1.11985,1.09704 1.41724,1.98928 0.89453,2.67578 l -1.98632,2.60937 c -0.61841,0.8122 -1.57376,0.77255 -2.86524,-0.11914 l -2.65039,3.48047 0.59375,0.45313 c 3.50019,2.66506 6.3916,2.49936 8.67383,-0.49805 l 2.20898,-2.90039 c 2.22334,-2.92006 1.42181,-5.89866 -2.40625,-8.93555 z m -13.09179,3.32031 -2.81055,3.35938 5.65625,4.30664 2.65039,-3.48047 z"
             style="font-style:normal;font-variant:normal;font-weight:normal;font-stretch:normal;font-size:medium;line-height:125%;font-family:'Aero Matics Stencil';-inkscape-font-specification:'Aero Matics Stencil, Normal';font-variant-ligatures:normal;font-variant-caps:normal;font-variant-numeric:normal;font-feature-settings:normal;text-align:start;letter-spacing:0px;word-spacing:0px;writing-mode:lr-tb;text-anchor:start;fill:#ff0000;fill-opacity:1;stroke:#000000;stroke-width:0.40000001;stroke-linecap:butt;stroke-linejoin:miter;stroke-miterlimit:4;stroke-dasharray:none;stroke-opacity:1" />
          <path
             inkscape:connector-curvature="0"
             id="path1037"
             d="m 154.12695,543.37109 -2.04687,3.63672 3.8125,2.14649 1.94922,-3.46485 z m -155.05273125,0.40235 -21.78906275,13.97461 2.697266,4.20507 21.7890624,-13.9746 z m 147.43750125,1.60937 -2.29102,4.44141 4.76758,2.68164 -1.3418,2.38281 3.91211,1.97071 1.24219,-2.20899 9.05664,5.0957 c 3.2835,1.84706 5.85392,1.11719 7.71289,-2.1875 l 2.25196,-4.0039 -3.87305,-2.40821 -1.9043,3.38282 c -0.52432,0.93209 -1.26157,1.12999 -2.21484,0.59375 z m -144.089845,3.60742 -3.6835938,2.36329 1.79101568,2.79296 c 0.77415642,1.20712 0.70192792,2.10486 -0.21875,2.69532 l -2.30273438,1.47656 c -1.1252731,0.72167 -2.162707,0.4552 -3.1113281,-0.79883 l -1.6816406,-2.62305 -3.3769528,2.16407 1.693359,2.63867 c 0.8686783,1.57961 0.7405075,2.73145 -0.3847656,3.45312 l -2.3027344,1.47657 c -0.920678,0.59045 -1.832912,0.17928 -2.738281,-1.23243 l -1.791016,-2.79296 -3.683594,2.36132 2.283203,3.56055 c 2.374955,3.70317 5.149089,4.53771 8.320313,2.50391 l 2.6074219,-1.67383 c 1.9129642,-1.22684 2.5318378,-2.86392 1.8535156,-4.91211 1.4268683,1.27937 3.0968014,1.30692 5.00976562,0.0801 L 3.3125,560.84961 c 3.1712242,-2.0338 3.570267,-4.9023 1.1953125,-8.60547 z m 139.798825,2.91602 c -0.19017,-0.005 -0.3847,0.008 -0.58398,0.041 -0.79715,0.1306 -1.4358,0.53198 -1.91797,1.20312 -0.48218,0.67113 -0.65795,1.40403 -0.52734,2.20117 0.1306,0.79714 0.52048,1.43044 1.17187,1.89844 0.6514,0.46799 1.37669,0.63647 2.17383,0.50586 0.79715,-0.13061 1.43579,-0.53199 1.91797,-1.20313 0.48218,-0.67113 0.65795,-1.40402 0.52734,-2.20117 -0.1306,-0.79714 -0.52048,-1.43044 -1.17187,-1.89844 -0.48855,-0.35099 -1.01932,-0.53259 -1.58985,-0.54687 z m 4.92969,3.39648 -2.76562,4.16211 16.43164,11.80664 2.91601,-4.05664 z m -3.25586,4.87696 c -0.41742,0.39289 -0.77245,0.75233 -1.06445,1.07812 -1.0869,1.21268 -1.93492,2.59754 -2.54688,4.1543 l 3.24414,2.9082 c 0.81849,-1.71436 1.98156,-3.41243 3.49024,-5.0957 z M 2.6679688,562.37891 c -1.2524066,0.01 -2.48376238,0.57196 -3.6953126,1.68945 l -6.6992187,6.17969 c -2.7692575,2.55426 -2.6623985,5.44786 0.3203125,8.68164 l 0.4941406,0.53711 3.2148438,-2.9668 c -0.9921288,-1.20111 -1.1164464,-2.14425 -0.375,-2.82812 l 6.1640625,-5.6836 c 0.7414464,-0.68388 1.6699174,-0.4842 2.7871093,0.60156 l 3.2167969,-2.96679 -0.4941406,-0.53516 c -1.6777751,-1.819 -3.3233567,-2.72135 -4.9335937,-2.70898 z M 130.29688,565.3457 c -0.80663,-0.043 -1.51622,0.21325 -2.13086,0.76563 -0.61462,0.55238 -0.94327,1.23049 -0.98633,2.03711 -0.043,0.80662 0.20215,1.50889 0.73828,2.10547 0.53613,0.59654 1.209,0.91591 2.01562,0.95898 0.80662,0.043 1.51621,-0.21129 2.13086,-0.76367 0.61462,-0.55238 0.94326,-1.23244 0.98633,-2.03906 0.043,-0.80662 -0.2041,-1.50695 -0.74023,-2.10352 -0.53614,-0.59655 -1.20705,-0.91787 -2.01367,-0.96094 z m 8.5957,0.38868 -3.19727,3.83984 15.06836,13.50586 3.33203,-3.71875 z M 8.9980469,566.60156 5.78125,569.56836 c 0.9852763,1.15783 1.0991563,2.08675 0.3398438,2.78711 l -6.16406255,5.68555 c -0.75931252,0.70036 -1.67734595,0.51294 -2.75195315,-0.5625 l -3.2148437,2.96679 0.4570312,0.49414 c 2.9827114,3.23378 5.85769562,3.57379 8.6269532,1.01953 l 6.7011718,-6.17968 c 2.7692574,-2.55426 2.6623984,-5.44786 -0.3203125,-8.68164 z m 125.9667931,3.20117 -3.59375,3.47461 13.52539,15.05078 3.71485,-3.33984 z m -121.226559,3.64063 c -1.445962,0.0766 -2.742848,0.86186 -3.8906248,2.35547 l -5.5527343,7.22656 c -2.2955534,2.98721 -1.6992318,5.82134 1.7890625,8.50195 0.7805299,0.59981 1.6469665,1.13636 2.6015625,1.60938 l 2.5117191,-3.26563 c -0.509198,-0.31466 -0.900109,-0.57586 -1.169922,-0.7832 -0.2023596,-0.15551 -0.3823748,-0.31033 -0.5410159,-0.46289 -1.3394279,-1.0293 -1.6762166,-1.9765 -1.0097656,-2.84375 l 5.1093755,-6.65039 c 0.66645,-0.86725 1.664348,-0.78947 2.99414,0.23242 l 1.625,1.38672 2.666016,-3.46875 -2.347656,-1.94141 c -1.744148,-1.3403 -3.339195,-1.97313 -4.785157,-1.89648 z m 11.669922,0.0586 -15.8847655,20.66993 3.8496095,3.1875 9.40625,-12.24024 -4.525391,8.57422 c -1.758306,3.33187 -0.68667,6.02702 3.214844,8.08594 l 2.861328,1.2207 2.109375,-3.99805 -2.068359,-0.84375 c -1.472473,-0.77706 -1.953836,-1.64987 -1.44336,-2.61718 l 6.806641,-12.89844 -3.6875,-1.77735 3.208984,-4.17578 z m 104.525387,2.36524 c -1.30052,0.0272 -2.74107,0.5912 -4.32031,1.6914 -0.78775,0.54881 -1.54503,1.19442 -2.27148,1.9375 l 2.375,3.41016 c 0.42698,-0.38633 0.78134,-0.67658 1.06054,-0.87109 0.18946,-0.13199 0.38084,-0.25037 0.57422,-0.35547 1.38605,-0.96562 2.39041,-0.999 3.01563,-0.10157 l 4.79492,6.88086 c 0.62521,0.89744 0.24911,1.82454 -1.12695,2.78321 l -1.72266,1.0664 2.51562,3.58008 2.45508,-1.57812 c 3.60969,-2.51476 4.33907,-5.31704 2.18555,-8.40821 l -5.21094,-7.47851 c -1.21135,-1.73879 -2.65212,-2.59161 -4.32422,-2.55664 z m -13.55273,1.67773 -6.62891,3.125 1.86719,3.95703 6.44531,-3.03906 z m 5.67187,2.49414 -4.20117,2.70508 15.00391,21.53906 3.99414,-3.0039 z m -13.60351,1.2461 -0.52734,0.24804 c -3.9789,1.87676 -5.16381,4.52038 -3.55665,7.92774 l 1.55469,3.29687 c 1.53978,3.26446 4.48974,3.94794 8.84961,2.05274 l -1.69336,-3.67383 c -1.4013,0.4191 -2.28095,0.24864 -2.63867,-0.50977 l -1.40039,-2.96875 c -0.41475,-0.87932 9.5e-4,-1.67871 1.24609,-2.40039 z m -65.132814,2.08398 -6.103515,25.90625 4.902343,0.9668 2.763672,-11.72657 z m 1.216797,1.03711 2.392578,26.4082 4.044922,0.95313 13.867188,-22.49024 c -0.02427,0.12336 -0.05296,0.2444 -0.0625,0.375 -0.03709,0.50794 0.0565,0.9744 0.255859,1.40625 l -6.794922,10.69727 -0.21875,1.08984 -2.488281,10.55664 4.820312,1.32422 4.554688,-19.33008 -1.388672,19.02149 4.980469,0.36523 1.486328,-20.36328 -4.806641,-0.17578 0.53125,-2.25586 c 0.491546,0.46499 1.087356,0.73695 1.800781,0.78906 0.824195,0.0602 1.541084,-0.1731 2.152344,-0.70117 0.61126,-0.52806 0.947446,-1.19223 1.00586,-1.99219 0.05841,-0.79995 -0.177012,-1.50592 -0.705078,-2.11718 -0.528067,-0.61125 -1.205103,-0.94762 -2.029297,-1.00782 -0.824195,-0.0602 -1.541083,0.17506 -2.152344,0.70313 -0.489126,0.42255 -0.792601,0.9346 -0.927735,1.53125 l -4.439453,-1.04688 -9.515625,14.87696 -1.875,-17.56055 z m 55.167969,0.77539 -4.914063,0.91797 5.720701,25.43359 4.91211,-0.91797 z m -64.88086,0.55859 -10.210937,19.34571 c -0.510476,0.96732 -1.533352,1.04546 -3.070313,0.23437 -1.665935,-0.87915 -3.493903,-1.91952 -5.484374,-3.12109 l -2.033204,3.41992 c 0.819847,0.78992 1.962104,1.57041 3.423828,2.3418 1.085546,0.57286 2.36789,1.16232 3.84961,1.76562 3.57219,1.45915 6.405095,0.20428 8.498047,-3.76172 l 9.529297,-18.05468 z m 83.988278,3.70704 c -1.26549,10e-4 -2.73373,0.37447 -4.40625,1.12304 l 1.73243,3.67774 c 1.48985,-0.48774 2.41901,-0.3429 2.78711,0.4375 l 1.40039,2.96875 c 0.43549,0.92328 -0.041,1.75158 -1.42774,2.48632 l 1.86719,3.95704 0.67578,-0.31836 c 3.97891,-1.87676 5.16576,-4.51844 3.55859,-7.92578 l -1.55664,-3.29688 c -0.97856,-2.07464 -2.52169,-3.11115 -4.63086,-3.10937 z m -24.019528,2.55664 -2.99414,0.56054 c -4.292102,0.96527 -6.025832,3.28733 -5.199219,6.96289 l 2,8.89063 c 0.826613,3.67555 3.387586,5.03168 7.679688,4.06641 0.960387,-0.21598 1.92605,-0.53982 2.90039,-0.97071 l -0.902343,-4.01953 c -0.567643,0.18995 -1.017624,0.32183 -1.34961,0.39648 -0.248989,0.056 -0.484373,0.0968 -0.703125,0.1211 -1.648073,0.37064 -2.592047,0.0222 -2.832031,-1.04492 l -1.839844,-8.17969 c -0.239985,-1.0671 0.459487,-1.78632 2.095703,-2.1543 l 2.103516,-0.36133 z m -14.5625,2.2207 c -0.404638,-8.3e-4 -0.788228,0.009 -1.152343,0.0273 -0.837466,0.0425 -1.623822,0.14928 -2.357422,0.32032 l 0.244141,4.4414 c 0.865877,-0.20206 1.686109,-0.32388 2.46289,-0.36328 1.371502,-0.0695 2.085245,0.44281 2.140625,1.53516 l 0.730469,14.38281 4.988281,-0.25391 -0.748047,-14.74609 c -0.171678,-3.38627 -1.849398,-5.15753 -5.033203,-5.3125 v 0.002 c -0.445161,-0.0201 -0.870752,-0.0324 -1.275391,-0.0332 z m -5.091796,0.0801 -4.980469,0.43554 1.035156,20.39063 4.988281,-0.25195 z m 42.425784,6.46679 -6.25,2.94727 1.68554,4.04297 6.42969,-3.0332 z"
             style="font-style:normal;font-variant:normal;font-weight:normal;font-stretch:normal;font-size:medium;line-height:125%;font-family:'Aero Matics Stencil';-inkscape-font-specification:'Aero Matics Stencil, Normal';font-variant-ligatures:normal;font-variant-caps:normal;font-variant-numeric:normal;font-feature-settings:normal;text-align:start;letter-spacing:0px;word-spacing:0px;writing-mode:lr-tb;text-anchor:start;fill:#000000;fill-opacity:1;stroke:#fb0000;stroke-width:0.40000001;stroke-linecap:butt;stroke-linejoin:miter;stroke-miterlimit:4;stroke-dasharray:none;stroke-opacity:1" />
        </g>
        <path
           style="opacity:1;fill:url(#linearGradient867);fill-opacity:1;fill-rule:nonzero;stroke:#fb0000;stroke-width:0.43082857;stroke-linecap:round;stroke-linejoin:round;stroke-miterlimit:4;stroke-dasharray:none;stroke-dashoffset:0;stroke-opacity:1"
           d="m 204.00785,382.75684 -8.94922,15.50195 a 164.28532,164.28532 0 0 1 43.77539,111.4336 164.28532,164.28532 0 0 1 -6.90039,46.83593 l 13.29688,13.55079 a 181.17467,181.80447 0 0 0 10.49414,-60.38672 181.17467,181.80447 0 0 0 -51.7168,-126.93555 z m -259.351562,0.20117 a 181.17467,181.80447 0 0 0 -51.281248,126.73438 181.17467,181.80447 0 0 0 10.832029,61.25976 l 13.294922,-13.54883 a 164.28532,164.28532 0 0 1 -7.238281,-47.71093 164.28532,164.28532 0 0 1 43.464844,-111.02344 z"
           id="path850"
           inkscape:connector-curvature="0" />
      </g>
    </g>
  </g>
</svg>
